<svg id="Слой_1" data-name="Слой 1" xmlns="http://www.w3.org/2000/svg" viewBox="0 0 651.65 651.42"><defs><style>.cls-1{fill:#fefefe;}.cls-2{fill:#d65f57;}</style></defs><title>v3</title><path class="cls-1" d="M1325.91,779.81c-.61-4.22-3.68-6.52-6.27-9.11q-44.5-44.53-89-89c-9.64-9.63-11.06-9.62-20.81.14q-73.62,73.68-147.21,147.38c-17.88,17.91-35.68,35.89-53.61,53.75-8.08,8-9.76,8-18-.23-6.36-6.3-12.58-12.73-18.9-19.07q-80.16-80.23-160.34-160.45c-8.51-8.51-16.86-17.18-25.55-25.5-4.7-4.5-7.21-4.33-12.05-.28-1.65,1.38-3.09,3-4.62,4.54q-43.21,43.2-86.43,86.39C671.38,780,671.32,780,683,791.63Q782.58,891,882.21,990.4c8.88,8.86,8.83,10.59.07,19.46-.87.88-1.74,1.75-2.62,2.62L710.42,1181c-10.49,10.45-21,20.86-31.4,31.44-6.23,6.37-6.07,9,.12,15.52.43.45.88.87,1.32,1.3q45.16,45.18,90.32,90.35c7.76,7.76,10.63,7.83,18.37.11,13.55-13.51,26.91-27.21,40.43-40.74q79.53-79.55,159.12-159c11.46-11.44,11.58-11.44,22.88-.13q96.53,96.6,193,193.25c3.27,3.27,6.35,6.76,9.84,9.78,4.47,3.87,7,3.78,11.4.11,1.66-1.37,3.1-3,4.62-4.54l89-89.06c7.75-7.75,7.76-10.53.14-18.36-.65-.66-1.3-1.31-2-2q-85.46-85.41-170.93-170.81c-10.48-10.47-21.09-20.81-31.46-31.39-5.2-5.31-5.06-7.87-.19-13.42,1-1.16,2.16-2.21,3.25-3.3l152.66-152.4q24.9-24.86,49.76-49.75C1323.1,785.63,1325.7,783.35,1325.91,779.81Z" transform="translate(-674.26 -674.36)"/><path class="cls-2" d="M1325.91,779.81c-.21,3.54-2.81,5.82-5.2,8.22q-24.87,24.89-49.76,49.75l-152.66,152.4c-1.09,1.09-2.23,2.14-3.25,3.3-4.87,5.55-5,8.11.19,13.42,10.37,10.58,21,20.92,31.46,31.39q85.47,85.4,170.93,170.81c.65.65,1.31,1.31,2,2,7.62,7.83,7.61,10.61-.14,18.36l-89,89.06c-1.53,1.53-3,3.17-4.62,4.54-4.43,3.66-6.93,3.76-11.4-.11-3.49-3-6.57-6.51-9.84-9.78q-96.49-96.63-193-193.25c-11.3-11.31-11.42-11.31-22.88.13q-79.6,79.48-159.12,159c-13.53,13.53-26.89,27.22-40.43,40.74-7.74,7.72-10.61,7.65-18.37-.11q-45.18-45.15-90.32-90.35c-.44-.44-.89-.85-1.32-1.3-6.19-6.5-6.35-9.15-.12-15.52,10.36-10.59,20.91-21,31.4-31.44l169.24-168.55c.87-.87,1.75-1.74,2.62-2.62,8.76-8.87,8.81-10.6-.07-19.46Q782.6,891,683,791.63C671.32,780,671.38,780,683,768.36Q726.28,725.2,769.46,682c1.53-1.53,3-3.16,4.62-4.54,4.85-4,7.35-4.22,12.05.28,8.69,8.32,17,17,25.55,25.5Q891.86,783.43,972,863.65c6.33,6.33,12.54,12.77,18.9,19.07,8.27,8.19,10,8.28,18,.23,17.93-17.86,35.73-35.84,53.61-53.75q73.59-73.7,147.21-147.38c9.75-9.76,11.17-9.77,20.81-.14q44.54,44.48,89,89C1322.23,773.29,1325.3,775.59,1325.91,779.81Z" transform="translate(-674.26 -674.36)"/></svg>